<svg id="Layer_1" data-name="Layer 1" xmlns="http://www.w3.org/2000/svg" xmlns:xlink="http://www.w3.org/1999/xlink" viewBox="0 0 340.12 340.12"><defs><style>.cls-1{fill:url(#radial-gradient);}.cls-2{fill:#1b64c3;}.cls-3{fill:url(#linear-gradient);}.cls-4{fill:#fafbfb;}.cls-5{fill:#feffff;}.cls-6{fill:#ebecee;}.cls-7{fill:url(#linear-gradient-2);}.cls-8{fill:url(#linear-gradient-3);}.cls-9{fill:url(#linear-gradient-4);}.cls-10{fill:#b1b8c4;}</style><radialGradient id="radial-gradient" cx="241.04" cy="81.52" r="219.86" gradientUnits="userSpaceOnUse"><stop offset="0" stop-color="#0c2d6d"/><stop offset="1" stop-color="#02173d"/></radialGradient><linearGradient id="linear-gradient" x1="204.04" y1="74.84" x2="140.68" y2="174.57" gradientUnits="userSpaceOnUse"><stop offset="0" stop-color="#113f8b"/><stop offset="1" stop-color="#011640"/></linearGradient><linearGradient id="linear-gradient-2" x1="221.97" y1="238.22" x2="279.23" y2="189.14" gradientUnits="userSpaceOnUse"><stop offset="0" stop-color="#1860c4"/><stop offset="1" stop-color="#2683e8"/></linearGradient><linearGradient id="linear-gradient-3" x1="185.27" y1="281.42" x2="279.07" y2="197.44" gradientUnits="userSpaceOnUse"><stop offset="0" stop-color="#175cc0"/><stop offset="1" stop-color="#1a60c6"/></linearGradient><linearGradient id="linear-gradient-4" x1="161.05" y1="176.8" x2="129.48" y2="226.49" gradientUnits="userSpaceOnUse"><stop offset="0" stop-color="#113f8b"/><stop offset="0.69" stop-color="#113f8b" stop-opacity="0"/></linearGradient></defs><title>icon</title><rect class="cls-1" width="340.12" height="340.12" rx="75.54"/><path class="cls-2" d="M262.68,174.69s-.8,1.68-2.31,4.51a226.67,226.67,0,0,1-13.3,22A164.48,164.48,0,0,1,230.48,222l-1.11,1c-23.18,20.33-51.35,31.58-59,34.42-9.65-3.56-51.69-20.43-75.5-51.9l.13-.08-.37-.28-.07-.05c-.85-1.14-1.68-2.3-2.48-3.47-.59-.85-1.15-1.72-1.7-2.59-.72-1.13-1.41-2.26-2.09-3.4-22.5-37.87-23.34-79.14-22-99.18,0-.29,0-.58,0-.85,12.31-4.32,55.29-18.44,104.06-23,48.78,4.57,91.76,18.67,104.07,23C275.52,111.7,275.38,142.81,262.68,174.69Z"/><path class="cls-3" d="M262.68,174.69s-1.69,4.1-3.19,6.94A239.51,239.51,0,0,1,245.94,204c-4.62,6.75-7.93,10.46-14.05,16.9-23.18,20.34-53.87,33.59-61.54,36.43-9.65-3.56-51.69-20.43-75.5-51.9l.13-.08-.37-.28-.07-.05c-.85-1.14-1.68-2.3-2.48-3.47-.59-.85-1.15-1.72-1.7-2.59-.72-1.13-1.41-2.26-2.09-3.4-22.5-37.87-23.34-79.14-22-99.18,13.9-4.82,55.58-18.12,102.66-22.53,48.78,4.56,91.76,18.66,104.07,23C274.07,113,275.38,142.81,262.68,174.69Z"/><path class="cls-4" d="M305.27,81.55a275.68,275.68,0,0,1-4.07,68l-3.1,2.71c-.06.06-1.71,1.48-4.62,3.7a265.39,265.39,0,0,0,5.7-69.83c-19.41-6.93-71-23.75-128.84-29.53C112.48,62.33,60.91,79.15,41.5,86.08c-1.32,26.5.5,71.2,20.77,114.8C35.75,151.62,36.09,95.65,35.41,81.55c16-5.9,71.69-25.14,134.93-31.37C233.59,56.41,289.32,75.65,305.27,81.55Z"/><path class="cls-5" d="M300.18,154.61h0a82.74,82.74,0,0,1-9.88,14c-11.36,13.17-26.46,23.49-40.45,31.13h0l-2.77,1.49a226.67,226.67,0,0,0,13.3-22c.18-.06.34-.14.52-.21h0a167.57,167.57,0,0,0,31.48-18.25C297.16,157.23,300,154.78,300.18,154.61Z"/><path class="cls-5" d="M265.79,173.19c-1,.51-2.06,1-3.11,1.5,12.7-31.88,12.84-63,11.72-79.16-12.31-4.33-55.29-18.43-104.07-23-48.77,4.58-91.75,18.7-104.06,23-1.36,19.7-.83,61.62,22,100L86,196.94C64.39,159.08,62.45,116.33,63.9,95.38L64,93.82l1.48-.52C77.63,89,121.07,74.76,170.11,70.16h.45C219.71,74.77,263.08,89,275.2,93.29l1.47.51.1,1.56C277.82,110.46,276.58,142.77,265.79,173.19Z"/><path class="cls-6" d="M293.48,155.91a171.08,171.08,0,0,1-27.69,17.28c10.79-30.42,12-62.73,11-77.83l-.1-1.56-1.47-.51C263.08,89,219.71,74.77,170.56,70.16h-.45C121.07,74.76,77.63,89,65.49,93.3L64,93.82l-.11,1.56c-1.45,21,.49,63.7,22.09,101.56l-1.43.84-18,10.65c-1.5-2.5-2.95-5-4.31-7.55C42,157.28,40.18,112.58,41.5,86.08c19.41-6.93,71-23.75,128.84-29.53,57.86,5.78,109.43,22.6,128.84,29.53A265.39,265.39,0,0,1,293.48,155.91Z"/><path class="cls-7" d="M298,164l-.18.44c-.21.5-.44,1-.68,1.57h0l-.39.84c-.41.86-.86,1.78-1.36,2.77h0c-.35.65-.7,1.33-1.07,2-.13.23-.26.46-.39.71h0c-.53,1-1.1,2-1.72,3-.15.26-.32.53-.48.8-.58,1-1.19,2-1.84,3-1.71,2.67-3.67,5.55-5.92,8.6h0c-14,19-39.2,44.54-82.62,68.15,14.18-10.35,27.2-22.87,36.61-37.7,35.29-19,57.21-50.07,59.82-53.91l.11-.16Z"/><path class="cls-8" d="M298,163.94h0c-.06.15-.12.31-.19.46-.2.5-.43,1-.68,1.57h0l-.39.84c-.4.87-.85,1.79-1.36,2.77h0c-.34.65-.69,1.33-1.07,2-.13.23-.26.46-.39.71h0c-.53,1-1.1,2-1.72,3-.15.26-.32.53-.48.8-.58,1-1.19,2-1.84,3-1.71,2.67-3.67,5.55-5.92,8.6h0c-14,19-39.2,44.54-82.62,68.15C184.45,268.26,165.94,277.53,150,284a207.91,207.91,0,0,0,22.58,10.46c3.92,1.52,6.92,2.53,8.76,3.11,22.79-10.29,68.6-34.87,92.73-75a214.57,214.57,0,0,0,24-58.65Z"/><path class="cls-9" d="M143.54,197.11c-4.48,12.61-7.63,25.08-18,22.29-7.66-2-19.7-10.17-25.55-14.35-1,.68-1.54,1-1.54,1s18.54,14,29,16.83,13.57-9.68,18-22.29a187.08,187.08,0,0,1,45.92-2.17L190,195.17A183.73,183.73,0,0,0,143.54,197.11Z"/><path class="cls-5" d="M260.37,179.2a226.67,226.67,0,0,1-13.3,22,222.48,222.48,0,0,1-36.39,15.27L169.84,126,155.18,167.3h23L190,195.17a183.73,183.73,0,0,0-46.41,1.94c-4.48,12.61-7.63,25.08-18,22.29s-29-16.83-29-16.83,11.76-7.15,16.24-17.82,31.3-73.86,35-82.68,6-10.36,22.55-10.36,20.44,3.54,23,9.63,41.35,85.53,41.35,85.53A107.32,107.32,0,0,0,260.37,179.2Z"/><path class="cls-6" d="M238,218.22c-9.41,14.83-22.43,27.35-36.61,37.7C184.45,268.26,165.94,277.53,150,284a241.28,241.28,0,0,1-67.64-53.91q-3-3.44-5.74-7c-.46-.59-.91-1.19-1.36-1.78l-1.19-1.62-.41-.55,21.2-13.67c23.16,38.64,75.78,56.37,75.78,56.37s28.88-8.47,59.85-39.86Q234.31,220.19,238,218.22Z"/><path class="cls-10" d="M73.65,219.12l.41.55,1.19,1.62c.45.59.9,1.19,1.36,1.78q2.73,3.56,5.74,7A241.28,241.28,0,0,0,150,284a207.91,207.91,0,0,0,22.58,10.46c3.92,1.52,6.92,2.53,8.76,3.11-4.84,2.19-8.65,3.73-11,4.64a264.15,264.15,0,0,1-30.45-14.37c-23.8-13.07-54.84-34.64-73.26-65.23-32.26-53.62-33-113.38-31.22-141,.68,14.1.34,70.07,26.86,119.33,1.36,2.53,2.81,5.05,4.31,7.55l.26.42c.44.73.89,1.45,1.35,2.17.06.1.13.2.19.31.44.69.88,1.38,1.34,2.06.15.24.31.48.47.72.3.46.61.91.92,1.36.09.15.2.29.3.45.37.55.75,1.1,1.14,1.64Z"/><path class="cls-5" d="M230.48,222c-31,31.39-59.85,39.86-59.85,39.86S118,244.09,94.85,205.45c23.81,31.47,65.85,48.34,75.5,51.9C178.15,254.47,207.09,242.9,230.48,222Z"/></svg>